<svg xmlns="http://www.w3.org/2000/svg">
  <symbol id="arrow-left" viewBox="0 0 24 24">
    <path d="m12 19-7-7 7-7"/>
    <path d="M19 12H5"/>
  </symbol>
  <symbol id="calendar" viewBox="0 0 24 24">
    <path d="M8 2v4M16 2v4M3 10h18"/>
    <rect width="18" height="18" x="3" y="4" rx="2"/>
  </symbol>
  <symbol id="map-pin" viewBox="0 0 24 24">
    <path d="M20 10c0 5-8 12-8 12S4 15 4 10a8 8 0 1 1 16 0Z"/>
    <circle cx="12" cy="10" r="3"/>
  </symbol>
  <symbol id="scale" viewBox="0 0 24 24">
    <path d="m16 16 3-8 3 8a5 5 0 0 1-6 0ZM2 16l3-8 3 8a5 5 0 0 1-6 0ZM7 21h10M12 3v18M3 7h18"/>
  </symbol>
  <symbol id="settings" viewBox="0 0 24 24">
    <path d="M12.22 2h-.44a2 2 0 0 0-2 2v.18a2 2 0 0 1-1 1.73l-.43.25a2 2 0 0 1-2 0l-.15-.08a2 2 0 0 0-2.73.73l-.22.38a2 2 0 0 0 .73 2.73l.15.1a2 2 0 0 1 1 1.72v.51a2 2 0 0 1-1 1.74l-.15.09a2 2 0 0 0-.73 2.73l.22.38a2 2 0 0 0 2.73.73l.15-.08a2 2 0 0 1 2 0l.43.25a2 2 0 0 1 1 1.73V20a2 2 0 0 0 2 2h.44a2 2 0 0 0 2-2v-.18a2 2 0 0 1 1-1.73l.43-.25a2 2 0 0 1 2 0l.15.08a2 2 0 0 0 2.73-.73l.22-.38a2 2 0 0 0-.73-2.73l-.15-.09a2 2 0 0 1-1-1.74v-.51a2 2 0 0 1 1-1.74l.15-.09a2 2 0 0 0 .73-2.73l-.22-.38a2 2 0 0 0-2.73-.73l-.15.08a2 2 0 0 1-2 0l-.43-.25a2 2 0 0 1-1-1.73V4a2 2 0 0 0-2-2Z"/>
    <circle cx="12" cy="12" r="3"/>
  </symbol>
  <symbol id="upload-cloud" viewBox="0 0 24 24">
    <path d="M12 16V4M7 9l5-5 5 5"/>
    <path d="M20 15.5a4.5 4.5 0 0 1-4.5 4.5h-8a5.5 5.5 0 0 1-.9-10.9A7 7 0 0 1 20 11.5"/>
  </symbol>
  <symbol id="image" viewBox="0 0 24 24">
    <rect width="18" height="18" x="3" y="3" rx="2"/>
    <circle cx="8.5" cy="8.5" r="1.5"/>
    <path d="m21 15-5-5L5 21"/>
  </symbol>
  <symbol id="check" viewBox="0 0 24 24">
    <path d="m5 12 4 4L19 6"/>
  </symbol>
  <symbol id="alert" viewBox="0 0 24 24">
    <path d="M10.3 2.9 1.8 17a2 2 0 0 0 1.7 3h17a2 2 0 0 0 1.7-3L13.7 2.9a2 2 0 0 0-3.4 0Z"/>
    <path d="M12 9v4M12 17h.01"/>
  </symbol>
</svg>
