<svg xmlns="http://www.w3.org/2000/svg">
  <symbol id="arrow-left" viewBox="0 0 24 24">
    <path d="m12 19-7-7 7-7"/>
    <path d="M19 12H5"/>
  </symbol>
  <symbol id="calendar" viewBox="0 0 24 24">
    <path d="M8 2v4M16 2v4M3 10h18"/>
    <rect width="18" height="18" x="3" y="4" rx="2"/>
  </symbol>
  <symbol id="map-pin" viewBox="0 0 24 24">
    <path d="M20 10c0 5-8 12-8 12S4 15 4 10a8 8 0 1 1 16 0Z"/>
    <circle cx="12" cy="10" r="3"/>
  </symbol>
  <symbol id="scale" viewBox="0 0 24 24">
    <path d="m16 16 3-8 3 8a5 5 0 0 1-6 0ZM2 16l3-8 3 8a5 5 0 0 1-6 0ZM7 21h10M12 3v18M3 7h18"/>
  </symbol>
  <symbol id="settings" viewBox="0 0 24 24">
    <path d="M12.22 2h-.44a2 2 0 0 0-2 2v.18a2 2 0 0 1-1 1.73l-.43.25a2 2 0 0 1-2 0l-.15-.08a2 2 0 0 0-2.73.73l-.22.38a2 2 0 0 0 .73 2.73l.15.1a2 2 0 0 1 1 1.72v.51a2 2 0 0 1-1 1.74l-.15.09a2 2 0 0 0-.73 2.73l.22.38a2 2 0 0 0 2.73.73l.15-.08a2 2 0 0 1 2 0l.43.25a2 2 0 0 1 1 1.73V20a2 2 0 0 0 2 2h.44a2 2 0 0 0 2-2v-.18a2 2 0 0 1 1-1.73l.43-.25a2 2 0 0 1 2 0l.15.08a2 2 0 0 0 2.73-.73l.22-.38a2 2 0 0 0-.73-2.73l-.15-.09a2 2 0 0 1-1-1.74v-.51a2 2 0 0 1 1-1.74l.15-.09a2 2 0 0 0 .73-2.73l-.22-.38a2 2 0 0 0-2.73-.73l-.15.08a2 2 0 0 1-2 0l-.43-.25a2 2 0 0 1-1-1.73V4a2 2 0 0 0-2-2Z"/>
    <circle cx="12" cy="12" r="3"/>
  </symbol>
</svg>
